<svg width="48" height="48" viewBox="0 0 48 48" fill="none" xmlns="http://www.w3.org/2000/svg">
<rect width="48" height="48" rx="4" fill="#1A1A1A"/>
<path d="M19.304 35.224C16.68 35.224 14.5253 34.6053 12.84 33.368C11.1547 32.1093 10.248 30.3173 10.12 27.992H16.808C16.872 28.7813 17.1067 29.3573 17.512 29.72C17.9173 30.0827 18.44 30.264 19.08 30.264C19.656 30.264 20.1253 30.1253 20.488 29.848C20.872 29.5493 21.064 29.144 21.064 28.632C21.064 27.9707 20.7547 27.4587 20.136 27.096C19.5173 26.7333 18.5147 26.328 17.128 25.88C15.656 25.3893 14.4613 24.92 13.544 24.472C12.648 24.0027 11.8587 23.3307 11.176 22.456C10.5147 21.56 10.184 20.3973 10.184 18.968C10.184 17.5173 10.5467 16.28 11.272 15.256C11.9973 14.2107 13 13.4213 14.28 12.888C15.56 12.3547 17.0107 12.088 18.632 12.088C21.256 12.088 23.3467 12.7067 24.904 13.944C26.4827 15.16 27.3253 16.8773 27.432 19.096H20.616C20.5947 18.4133 20.3813 17.9013 19.976 17.56C19.592 17.2187 19.0907 17.048 18.472 17.048C18.0027 17.048 17.6187 17.1867 17.32 17.464C17.0213 17.7413 16.872 18.136 16.872 18.648C16.872 19.0747 17.032 19.448 17.352 19.768C17.6933 20.0667 18.1093 20.3333 18.6 20.568C19.0907 20.7813 19.816 21.0587 20.776 21.4C22.2053 21.8907 23.3787 22.3813 24.296 22.872C25.2347 23.3413 26.0347 24.0133 26.696 24.888C27.3787 25.7413 27.72 26.8293 27.72 28.152C27.72 29.496 27.3787 30.7013 26.696 31.768C26.0347 32.8347 25.064 33.6773 23.784 34.296C22.5253 34.9147 21.032 35.224 19.304 35.224Z" fill="#F5F5F5"/>
<path d="M33.6758 35.256C32.5664 35.256 31.6704 34.9573 30.9878 34.36C30.3264 33.7413 29.9958 32.9627 29.9958 32.024C29.9958 31.0853 30.3264 30.3067 30.9878 29.688C31.6704 29.0693 32.5664 28.76 33.6758 28.76C34.7638 28.76 35.6384 29.0693 36.2998 29.688C36.9824 30.3067 37.3238 31.0853 37.3238 32.024C37.3238 32.9413 36.9824 33.7093 36.2998 34.328C35.6384 34.9467 34.7638 35.256 33.6758 35.256Z" fill="#18F2A5"/>
</svg>
