<svg width="48" height="48" viewBox="0 0 48 48" fill="none" xmlns="http://www.w3.org/2000/svg">
<rect width="48" height="48" rx="4" fill="#1A1A1A"/>
<path d="M19.728 32.168C17.76 32.168 16.144 31.704 14.88 30.776C13.616 29.832 12.936 28.488 12.84 26.744H17.856C17.904 27.336 18.08 27.768 18.384 28.04C18.688 28.312 19.08 28.448 19.56 28.448C19.992 28.448 20.344 28.344 20.616 28.136C20.904 27.912 21.048 27.608 21.048 27.224C21.048 26.728 20.816 26.344 20.352 26.072C19.888 25.8 19.136 25.496 18.096 25.16C16.992 24.792 16.096 24.44 15.408 24.104C14.736 23.752 14.144 23.248 13.632 22.592C13.136 21.92 12.888 21.048 12.888 19.976C12.888 18.888 13.16 17.96 13.704 17.192C14.248 16.408 15 15.816 15.96 15.416C16.92 15.016 18.008 14.816 19.224 14.816C21.192 14.816 22.76 15.28 23.928 16.208C25.112 17.12 25.744 18.408 25.824 20.072H20.712C20.696 19.56 20.536 19.176 20.232 18.92C19.944 18.664 19.568 18.536 19.104 18.536C18.752 18.536 18.464 18.64 18.24 18.848C18.016 19.056 17.904 19.352 17.904 19.736C17.904 20.056 18.024 20.336 18.264 20.576C18.52 20.8 18.832 21 19.2 21.176C19.568 21.336 20.112 21.544 20.832 21.8C21.904 22.168 22.784 22.536 23.472 22.904C24.176 23.256 24.776 23.76 25.272 24.416C25.784 25.056 26.04 25.872 26.04 26.864C26.04 27.872 25.784 28.776 25.272 29.576C24.776 30.376 24.048 31.008 23.088 31.472C22.144 31.936 21.024 32.168 19.728 32.168Z" fill="#F5F5F5"/>
<path d="M30.5068 32.192C29.6748 32.192 29.0028 31.968 28.4908 31.52C27.9948 31.056 27.7468 30.472 27.7468 29.768C27.7468 29.064 27.9948 28.48 28.4908 28.016C29.0028 27.552 29.6748 27.32 30.5068 27.32C31.3228 27.32 31.9788 27.552 32.4748 28.016C32.9868 28.48 33.2428 29.064 33.2428 29.768C33.2428 30.456 32.9868 31.032 32.4748 31.496C31.9788 31.96 31.3228 32.192 30.5068 32.192Z" fill="#18F2A5"/>
</svg>
